<svg xmlns="http://www.w3.org/2000/svg" viewBox="0 0 64 64">
  <rect width="64" height="64" rx="14" fill="#16181f"/>
  <ellipse cx="32" cy="36" rx="20" ry="16" fill="#f4a8c1"/>
  <path d="M14 30 Q10 26 12 22 Q16 22 18 28 Z" fill="#f4a8c1"/>
  <path d="M44 22 L40 24 L44 26 Z M52 22 L48 24 L52 26 Z" fill="#f4a8c1"/>
  <ellipse cx="44" cy="32" rx="5" ry="6" fill="#f7c2d4"/>
  <circle cx="42.5" cy="31" r="1.1" fill="#16181f"/>
  <circle cx="45.5" cy="31" r="1.1" fill="#16181f"/>
  <circle cx="38" cy="32" r="1.6" fill="#16181f"/>
  <path d="M22 46 L22 52 M28 48 L28 52 M36 48 L36 52 M42 46 L42 52" stroke="#f4a8c1" stroke-width="3" stroke-linecap="round"/>
  <rect x="28" y="20" width="8" height="2" rx="1" fill="#16181f"/>
  <circle cx="50" cy="18" r="5" fill="#fbbf24"/>
  <text x="50" y="22" text-anchor="middle" font-family="ui-sans-serif,system-ui" font-size="7" font-weight="700" fill="#16181f">L</text>
</svg>
